<svg width="520.81" height="393.28" xmlns="http://www.w3.org/2000/svg" xmlns:xlink="http://www.w3.org/1999/xlink">
 <defs>
  <linearGradient y2="1.754916" x2="0.591509" y1="0.08519" x1="0.46903" id="linear-gradient">
   <stop stop-opacity="0" stop-color="#010101" offset="0"/>
   <stop stop-color="#010101" offset="0.95"/>
  </linearGradient>
  <linearGradient xlink:href="#linear-gradient" gradientTransform="translate(-52.21 104.29) rotate(-13.63)" y2="259.71" x2="279.95" y1="222.83" x1="283.98" id="linear-gradient-4"/>
  <linearGradient xlink:href="#linear-gradient" gradientTransform="matrix(1, 0, 0, 1, 0, 0)" y2="182.13" x2="299.54" y1="182.13" x1="289.88" id="linear-gradient-14"/>
 </defs>
 <title>Alien 2</title>
 <g>
  <title>background</title>
  <rect fill="none" id="canvas_background" height="402" width="582" y="-1" x="-1"/>
 </g>
 <g>
  <title>Layer 1</title>
  <path stroke="null" id="svg_1" opacity="0.24" fill="#68e1fd" d="m395.953804,326.598811c18.515454,-14.481051 33.662301,-34.724403 37.054687,-57.987613c0.657869,-4.509972 0.887727,-9.138835 2.433324,-13.434801c2.813778,-7.807244 9.511364,-13.403096 15.115142,-19.545852c28.534091,-31.363721 26.576335,-85.602272 -4.153295,-114.786305c-18.016108,-17.136307 -42.991363,-25.363636 -61.237329,-42.301789c-8.584006,-7.926136 -15.899829,-17.944772 -26.742784,-22.335852c-6.222017,-2.520511 -13.070199,-2.940597 -19.77571,-3.273494c-25.49838,-1.268182 -51.575369,-1.648636 -75.96409,5.912898c-33.044062,10.240568 -61.150141,34.510397 -95.264232,40.24892c-12.824488,2.163835 -26.116619,1.585227 -38.600284,5.262954c-12.602557,3.725284 -23.651591,11.516676 -33.48,20.26713c-13.545767,12.047727 -25.450824,26.417812 -32.069147,43.300482s-7.506051,36.460227 0.20608,52.891107c7.284119,15.471818 21.162784,26.584261 33.337329,38.600284s23.580255,26.948863 23.397954,44.077244c-0.063409,5.857415 -1.450483,12.047727 1.030398,17.350312c2.623551,5.603778 8.774233,8.520596 14.504829,10.858807c79.094914,32.219744 188.000026,51.416846 260.207127,-5.104432z"/>
  <ellipse id="svg_10" fill="url(#linear-gradient-4)" transform="rotate(-3.4000000953674316 259.76000976562483,230.46000671386668) " ry="11.02" rx="19.5" cy="230.459999" cx="259.760001"/>
  <ellipse id="svg_26" fill="#68e1fd" transform="rotate(-56.86000061035156 303.4700012207032,439.58001708984375) " ry="6.17" rx="9.25" cy="439.580012" cx="303.47"/>
  <path id="svg_30" fill="url(#linear-gradient-14)" d="m288.47,131.22a1.28,1.28 0 0 0 0.51,0.09a1.38,1.38 0 0 0 0.42,-0.17a6.34,6.34 0 0 1 3.3,-0.45a0.24,0.24 0 0 1 0.18,0c0.11,0.12 -0.06,0.3 -0.21,0.36c-1,0.42 -2.21,0.39 -3.16,1a2.89,2.89 0 0 1 -1,0.5a2.16,2.16 0 0 1 -0.86,-0.17a6.09,6.09 0 0 0 -2.25,-0.24a7.42,7.42 0 0 1 -1.82,0.1c-0.14,0 -0.32,-0.12 -0.31,-0.26s0.18,-0.19 0.32,-0.21c1.63,-0.29 3.19,-1.06 4.88,-0.55z"/>
 </g>
</svg>